<svg width="545" height="413" viewBox="0 0 545 413" fill="none" xmlns="http://www.w3.org/2000/svg"><path d="M38.063 218.287h489.544" stroke="#EDA65B" stroke-opacity=".3" stroke-width="3" stroke-linecap="round"/><path d="M16.688 147.27l457.138 123.42" stroke="#EDA65B" stroke-opacity=".3" stroke-width="3" stroke-linecap="round" stroke-dasharray="12 8"/><path d="M49.232 92.343l432.73 250.643M105.51 57.06l320.176 321.21" stroke="#EDA65B" stroke-opacity=".3" stroke-width="3" stroke-linecap="round" stroke-dasharray="8 6"/><path d="M148.36 16.342l217.495 376.773" stroke="#EDA65B" stroke-opacity=".3" stroke-width="3" stroke-linecap="round"/><path d="M212.235 20.384l99.45 374.348" stroke="#EDA65B" stroke-opacity=".3" stroke-width="3" stroke-linecap="round" stroke-dasharray="12 10"/><path d="M265.597 2v409M490.374 155.543L1.52 287.237" stroke="#EDA65B" stroke-opacity=".3" stroke-width="3" stroke-linecap="round" stroke-dasharray="8 6"/><path d="M500.716 79.698L49.232 343.25" stroke="#EDA65B" stroke-opacity=".3" stroke-width="3" stroke-linecap="round"/><path d="M425.686 57.3L105.51 378.51" stroke="#EDA65B" stroke-opacity=".3" stroke-width="3" stroke-linecap="round" stroke-dasharray="4 8"/><path d="M362.127 45.913L162.173 394.11" stroke="#EDA65B" stroke-opacity=".3" stroke-width="3" stroke-linecap="round" stroke-dasharray="8 6"/><path d="M322.136 5.922L218.71 388.594" stroke="#EDA65B" stroke-opacity=".3" stroke-width="3" stroke-linecap="round"/><circle cx="90.465" cy="116.242" r="9.653" fill="#fff"/><circle cx="90.465" cy="116.242" r="8.153" stroke="#EDA65B" stroke-opacity=".3" stroke-width="3"/><circle cx="415.908" cy="128.653" r="9.653" fill="#fff"/><circle cx="415.908" cy="128.653" r="8.153" stroke="#EDA65B" stroke-opacity=".3" stroke-width="3"/><circle cx="225.607" cy="363.082" r="9.653" fill="#fff"/><circle cx="225.607" cy="363.082" r="8.153" stroke="#EDA65B" stroke-opacity=".3" stroke-width="3"/><circle cx="47.716" cy="274.826" r="9.653" fill="#fff"/><circle cx="47.716" cy="274.826" r="8.153" stroke="#EDA65B" stroke-opacity=".3" stroke-width="3"/><circle cx="160.794" cy="37.639" r="8.274" fill="#fff"/><circle cx="160.794" cy="37.639" r="6.774" stroke="#EDA65B" stroke-opacity=".3" stroke-width="3"/><circle cx="352.474" cy="62.461" r="8.274" fill="#fff"/><circle cx="352.474" cy="62.461" r="6.774" stroke="#EDA65B" stroke-opacity=".3" stroke-width="3"/><circle cx="406.255" cy="358.945" r="8.274" fill="#fff"/><circle cx="406.255" cy="358.945" r="6.774" stroke="#EDA65B" stroke-opacity=".3" stroke-width="3"/><circle cx="535.881" cy="218.287" r="8.274" fill="#fff"/><circle cx="535.881" cy="218.287" r="6.774" stroke="#EDA65B" stroke-opacity=".3" stroke-width="3"/><path d="M170.802 281.933l95.238 55.185 95.3-55.185V110.18l-95.3-9.698-95.238 9.698v171.753z" fill="#4C489B"/><path d="M295.4 240.78s10.753 9.9 16.463 19.56c2.49 4.252 8.322 10.873 10.327 15.004 6.378 13.546 9.415 28.732 9.415 28.732l-64.936 38.937-65.3-41.063s8.928-30.676 11.236-35.05c5.224-9.9 24.116-24.54 24.116-24.54" fill="#EB532A"/><path fill-rule="evenodd" clip-rule="evenodd" d="M224.78 254.176c-4.462 4.34-8.696 9.036-10.924 12.906-2.24 3.89-4.613 10.537-6.68 17.357-2.06 6.79-3.785 13.642-4.742 17.873l-2.133-.482c.968-4.273 2.705-11.178 4.782-18.026 2.067-6.817 4.502-13.684 6.88-17.813 2.388-4.15 6.81-9.02 11.293-13.38 4.502-4.38 9.148-8.324 12.06-10.623l1.354 1.717c-2.86 2.257-7.448 6.15-11.89 10.472z" fill="#10122E"/><path d="M298.622 251.042c-5.042 1.944-19.682.365-24.298 2.916-11.056 6.074-9.112 10.57-20.35 4.8-.364-.183-.73-.366-1.093-.487-8.93-3.644-19.134-.607-24.965 7.047-6.075 8.08-13 18.224-12.635 22.415.668 7.41 12.817-3.16 12.756 7.472-.06 10.63 1.883 20.47 7.41 24.055 4.74 3.097 26.304 15.306 31.77 19.072v1.033s.244-.182.67-.547c.424.304.728.486.728.486v-1.032c5.285-4.07 24.6-18.71 29.157-22.05 5.286-3.828 5.468-18.224 4.86-28.854-.607-10.63 8.566 2.43 8.81-4.98.12-2.796.363-10.875-1.884-16.16-1.094-2.55-.365-8.2-1.762-10.265-3.523-4.98-9.172-4.92-9.172-4.92z" fill="#EFA75B"/><path d="M311.99 198.2c-.243 11.543-1.762 22.173-7.776 32.257-2.673 4.495-3.766 7.896-8.018 11.116-3.584 2.55-11.602 1.032-17.373 5.77 0 0-1.056.897-2.733 2.02-2.943 1.975-7.8 4.652-12.21 4.42-2.65-.17-5.3-1.15-7.532-2.27-3.4-1.71-5.832-3.744-5.832-3.744-3.34-3.22-11.36-3.828-16.28-5.53-5.77-2.125-14.943-19.923-15.55-23.082l-1.58-6.014c-2.004-4.677-2.43-9.84-4.92-14.518-1.762-3.037-3.098-5.527-3.766-8.382-1.337-6.44-2.916-13.06-4.01-19.5-2.004-9.597-6.013-25.27.426-33.41 0 0 7.29-1.64 20.29 11.968 6.255 5.527 12.45 16.036 20.287 19.013 0 0 2.673-2.734 4.253-5.346 1.76 1.457 5.102 3.4 7.775 3.036 1.762 0 3.1-1.7 4.435-1.7 1.094 0 2.916 1.032 3.34 1.032 4.678 1.944 4.436-2.126 7.108-1.944 2.673 0 2.673 5.103 8.444 1.944l2.916-.243c7.35-7.714 21.99-27.396 34.503-24.6 11.116 2.732-2.005 45.8-5.77 56.248l-.426 1.458z" fill="#EB532A"/><path fill-rule="evenodd" clip-rule="evenodd" d="M205.432 138.393c-2.705 3.716-3.29 9.132-2.86 15.01.376 5.146 1.506 10.422 2.458 14.867.165.772.325 1.52.475 2.237l.004.02.003.02c.747 4.4 1.718 8.866 2.69 13.33.442 2.04.886 4.082 1.308 6.116.63 2.67 1.884 5.03 3.642 8.06l.01.02.01.017c1.31 2.46 2.065 5.027 2.735 7.493l.25.925c.58 2.16 1.133 4.217 1.976 6.185l.033.077 1.61 6.13.007.038c.054.28.228.817.545 1.603.308.765.728 1.704 1.24 2.762 1.02 2.114 2.386 4.67 3.913 7.195 1.53 2.528 3.203 5 4.835 6.957 1.666 2 3.155 3.297 4.294 3.72 1.557.538 3.392.952 5.35 1.394 1.065.24 2.166.49 3.278.77 3 .757 6.105 1.76 8.02 3.582l.07.056c.066.055.17.136.303.24.27.208.666.505 1.166.855 1.002.7 2.413 1.606 4.05 2.43 2.164 1.086 4.657 1.996 7.093 2.152 1.97.103 4.107-.445 6.158-1.297 2.043-.85 3.926-1.97 5.36-2.932.815-.547 1.478-1.037 1.936-1.39.23-.176.406-.317.524-.413l.133-.108.032-.027.007-.006v-.002l.007-.005.007-.006c3.128-2.568 6.83-3.41 10.034-3.945.548-.092 1.072-.174 1.577-.252 1.013-.158 1.946-.303 2.823-.492 1.295-.28 2.282-.622 2.988-1.12 3.046-2.31 4.312-4.634 5.966-7.672.522-.96 1.083-1.99 1.75-3.112 5.87-9.84 7.377-20.243 7.618-31.705l.003-.15.477-1.633.012-.033c1.87-5.186 6.072-18.506 8.42-30.847 1.175-6.182 1.87-12.038 1.604-16.48-.134-2.228-.504-4.01-1.112-5.284-.593-1.24-1.37-1.92-2.34-2.164-2.794-.62-5.784-.008-8.89 1.497-3.113 1.508-6.256 3.87-9.29 6.603-4.17 3.758-7.99 8.074-11.198 11.697-1.494 1.687-2.854 3.224-4.056 4.485l-.294.31-3.11.26c-1.446.76-2.668 1.093-3.748 1.05-1.17-.047-2.024-.528-2.68-1.077-.317-.264-.595-.55-.83-.796l-.114-.12c-.195-.206-.356-.376-.522-.53-.38-.348-.618-.45-.875-.45h-.038l-.04-.003c-.33-.022-.553.068-.82.272-.153.116-.308.262-.504.455l-.092.09c-.165.164-.36.358-.568.54-.517.452-1.2.916-2.165 1.066-.91.143-1.945-.015-3.17-.505-.108-.02-.2-.046-.258-.064-.134-.04-.276-.093-.408-.145-.13-.05-.305-.122-.48-.195l-.4-.163c-.68-.27-1.21-.436-1.505-.436-.1 0-.262.034-.533.16-.24.113-.487.26-.8.444l-.155.092c-.687.405-1.678.98-2.868 1.005-1.616.2-3.318-.282-4.768-.93-1.027-.462-1.992-1.035-2.803-1.604-.704 1.02-1.49 1.99-2.148 2.76-.444.517-.838.95-1.12 1.256-.142.153-.257.274-.336.358l-.094.096-.025.026-.006.007h-.002v.002l-.804-.785.803.785-.513.526-.688-.26c-4.198-1.595-7.863-5.158-11.176-8.85-1.045-1.167-2.054-2.342-3.038-3.49-2.21-2.574-4.3-5.01-6.42-6.882l-.037-.032-.034-.034c-6.414-6.714-11.35-9.593-14.6-10.81-1.625-.608-2.835-.804-3.608-.856-.277-.018-.5-.018-.666-.01zm39.688 28.58c.258-.28.594-.655.968-1.09.85-.993 1.867-2.275 2.61-3.503l.674-1.116 1.004.83c.813.674 2.003 1.467 3.29 2.043 1.306.586 2.582.89 3.617.748l.076-.01h.075c.537 0 1.065-.26 1.806-.695l.14-.083c.304-.18.656-.39 1.004-.552.41-.192.917-.37 1.485-.37.797 0 1.725.35 2.338.595l.46.188c.142.06.268.11.404.164.105.04.18.068.23.084h.133l.207.086c1.05.437 1.697.482 2.103.418.388-.06.69-.238 1.03-.537.15-.13.29-.27.454-.432.035-.034.07-.07.11-.107.2-.198.44-.43.715-.64.577-.44 1.315-.788 2.3-.73 1.06.012 1.812.54 2.36 1.044.227.21.448.443.64.647l.1.105c.23.24.432.444.643.62.398.332.793.535 1.33.556.574.023 1.45-.156 2.793-.892l.21-.114 2.725-.227c1.04-1.108 2.243-2.466 3.573-3.967 3.246-3.664 7.25-8.185 11.512-12.025 3.11-2.8 6.432-5.318 9.813-6.956 3.383-1.638 6.91-2.438 10.372-1.665h.01l.013.004c1.8.443 3.043 1.706 3.844 3.38.787 1.647 1.186 3.758 1.327 6.117.282 4.728-.455 10.804-1.64 17.037-2.37 12.463-6.6 25.87-8.502 31.156l-.374 1.282c-.254 11.565-1.797 22.375-7.93 32.658-.575.968-1.086 1.908-1.582 2.822-1.708 3.147-3.25 5.985-6.724 8.616l-.013.01-.013.01c-1.086.773-2.44 1.195-3.83 1.495-.94.203-1.983.365-3.036.53-.49.076-.982.152-1.467.233-3.143.526-6.333 1.295-8.974 3.462-.002 0-.004.002-.006.004l-.003.002-.04.035-.153.126c-.132.107-.324.26-.57.45-.49.375-1.192.895-2.054 1.473-1.51 1.01-3.525 2.215-5.75 3.14-2.212.92-4.706 1.595-7.145 1.467H263.802c-2.86-.183-5.665-1.234-7.965-2.39-1.76-.884-3.266-1.85-4.33-2.594-.533-.373-.958-.692-1.252-.92-.147-.112-.26-.203-.34-.267-.04-.03-.07-.056-.09-.074l-.026-.02-.007-.006-.002-.002.72-.863-.72.863-.03-.026-.03-.027c-1.43-1.377-3.984-2.28-7.043-3.053-.975-.247-2.006-.48-3.04-.714-2.05-.464-4.112-.93-5.784-1.508l-.01-.004-.01-.003c-1.746-.643-3.564-2.366-5.255-4.394-1.73-2.076-3.47-4.65-5.03-7.233-1.564-2.586-2.965-5.204-4.016-7.38-.525-1.09-.966-2.076-1.298-2.898-.315-.78-.557-1.473-.66-1.98l-1.55-5.9c-.892-2.104-1.482-4.3-2.05-6.42l-.246-.91c-.665-2.448-1.365-4.795-2.54-7.008-1.757-3.03-3.17-5.644-3.878-8.673l-.003-.012-.003-.014c-.414-1.993-.853-4.014-1.295-6.047-.976-4.484-1.964-9.03-2.72-13.472-.144-.69-.3-1.418-.462-2.175-.95-4.437-2.12-9.888-2.508-15.203-.452-6.195.124-12.52 3.62-16.937l.245-.312.388-.088.247 1.097c-.247-1.097-.245-1.097-.244-1.097h.002l.006-.002.013-.003.035-.007.103-.017c.082-.012.193-.026.333-.037.28-.023.67-.034 1.17 0 .998.065 2.423.31 4.246.992 3.637 1.362 8.835 4.46 15.405 11.328 2.228 1.976 4.474 4.592 6.725 7.214.96 1.12 1.92 2.238 2.882 3.31 3.1 3.454 6.236 6.462 9.613 7.966zm20.232-2.753l-.01-.002c.007 0 .01.002.01.002z" fill="#10122E"/><path d="M296.433 198.743c-.668-2.126-2.248-3.645-4.434-4.07-1.763-.425-3.585 0-5.104-.243.243-1.458 1.336-6.196-2.004-5.77-1.762 0-3.584 5.102-4.678 6.438-1.76 2.55-2.916 1.944-3.098-1.033-.425-3.037 1.094-7.107-1.336-7.714-1.762-.242-3.098 3.22-3.766 5.346-.243 1.033-1.337 1.944-.91-5.527 0-1.945 0-7.108-1.095-7.29h-.426c-3.098.242-5.346 12.21-6.257 15.61-.668-3.4-4.252-17.98-6.925-14.76-.668 1.944-.243 2.733-.425 4.677 0 1.033-.243 8.383-1.093 7.107-.426-2.126-2.916-6.44-4.252-5.77-2.43 2.126-.426 5.102-1.094 8.14-.425 3.036-1.58 3.644-3.098.85-.91-1.337-2.43-6.44-4.252-6.622-3.098-.425-2.247 4.313-2.247 5.77-1.58 0-3.34-.424-5.102-.242-2.248.425-3.766 1.7-4.677 3.827-.242.425 0 16.462 14.7 16.705 2.43 0 4.253-.243 6.258-1.033 1.336-.426 2.43-1.46 3.583-.67l15.127 1.034c1.093-.85 2.247-1.458 3.34-1.033 2.005.85 4.92 2.37 7.35 2.37 7.594 0 14.276-3.037 16.463-9.84.607-.243-.304-5.832-.547-6.257z" fill="#EDA65B"/><path d="M256.16 224.01c-.668-3.4.243-6.803.91-10.266 0 0 2.25-7.29 5.772-7.896 9.112-1.7 10.023 18.405 10.023 18.405-10.752 4.678-16.705-.243-16.705-.243z" fill="#F4783F"/><path d="M288.234 226.564c-.668-1.457-3.34-2.733-5.345-3.037-4.253-.425-18.71 2.734-18.71 2.734l-.06.122c-1.884-.547-14.762-4.01-18.71-3.584-2.005.243-4.92 1.337-5.53 2.734-1.092 2.126.244 4.92 1.338 7.29 1.336 2.55 4.313 4.798 7.41 6.742 1.337.85 3.22 1.154 4.557 1.154 11.116.243 11.42-4.556 11.42-4.313l.182-1.154.06.062c.426 0-.97 4.798 9.963 4.798 1.336 0 3.4-.485 4.738-1.093 3.098-1.944 5.77-2.673 7.107-5.224 1.093-2.248 2.673-4.86 1.58-7.23z" fill="#EDA65B"/><path d="M255.92 224.44c.425-1.337 8.93.243 8.93.243s7.35-1.7 8.443.243c.243.425-.91 1.944-.91 1.944s-3.1-.243-3.767.425c-.91.85-1.337 4.92-1.094 4.92.243 0-1.58 2.126-2.43 2.126-.668 0-2.672-1.457-2.43-1.7.244-.243-.242-4.495-1.336-5.345-.668-.668-3.098.243-4.01-.243-.545-.668-1.396-2.612-1.396-2.612z" fill="#CF4B28"/><path d="M224.084 214.173c1.336 3.402 3.766 6.014 7.107 7.714 2.25 1.337 4.253-2.126 2.006-3.4-2.248-1.277-4.252-3.038-5.103-5.347-.91-2.43-4.92-1.336-4.01 1.033zM296.855 221.83c2.43-1.7 5.102-3.22 6.682-6.013 1.336-2.126-2.248-4.313-3.584-1.944-1.094 1.944-3.34 3.22-5.346 4.495-.91.668-1.336 1.7-.668 2.734.485 1.032 2.064 1.397 2.915.73z" fill="#EDA65B"/><path d="M273.052 225.106c.243.425-.912 1.944-.912 1.944s-3.098-.243-3.766.425c-.91.85-1.336 4.92-1.093 4.92.244 0-1.58 2.127-2.43 2.127-.667 0-2.672-1.458-2.43-1.7.244-.244-.242-4.496-1.335-5.347-.668-.668-3.098.243-4.01-.243-.667-.243-1.336-2.126-1.336-2.126" fill="#CF4B28"/><path d="M264.85 235.37c-1.094 0-3.585-2.733-3.342-3.036 0-.85-.425-3.827-.91-4.496h-1.58c-.91 0-1.762.243-2.248-.243-.91-.425-1.58-1.943-1.76-2.55-.244-.426 0-.85.424-1.033.425-.243.91 0 1.093.425.243.85.912 1.7 1.094 1.7h1.337c1.094 0 2.005-.242 2.673.426 1.336 1.033 1.58 4.677 1.58 4.92v.85c.425.426 1.093.85 1.58 1.033.424-.243 1.092-1.032 1.578-1.458 0-.425 0-1.032.243-2.126.426-2.37 1.094-3.037 1.337-3.22.67-.667 2.673-.667 4.01-.667.243-.426.425-.67.425-.85 0-.426 0-.67.425-.85.425-.244.91-.244 1.093.242.243.243.67 1.032-1.093 3.037-.243.243-.425.425-.668.243-1.338 0-2.917 0-3.1.243-.424.425-.91 3.037-.91 3.827v.425c-.183.608-1.944 2.916-3.28 3.16z" fill="#131841"/><path fill-rule="evenodd" clip-rule="evenodd" d="M272.56 207.58l.613-.94.614-.942.016.01c.014.01.037.023.07.043.064.04.163.1.293.173.26.148.646.353 1.127.574.97.445 2.303.945 3.795 1.19 1.49.244 3.1.228 4.658-.315 1.54-.537 3.1-1.615 4.477-3.617l1.852 1.273c-1.63 2.372-3.57 3.762-5.59 4.466-2.002.7-4.01.698-5.76.41-1.75-.286-3.283-.865-4.37-1.365-.547-.252-.988-.487-1.295-.66-.154-.087-.275-.16-.36-.21-.04-.027-.075-.048-.098-.063l-.03-.018-.008-.006-.003-.002zM237.872 207.062l.73-.853c.734-.853.733-.854.733-.854l.015.012c.013.01.034.03.063.053.06.048.15.12.27.21.24.18.595.436 1.045.72.904.568 2.163 1.24 3.613 1.676 1.45.436 3.05.628 4.666.287 1.6-.338 3.29-1.213 4.917-3.035l1.677 1.497c-1.927 2.157-4.033 3.294-6.13 3.737-2.08.44-4.074.18-5.777-.334-1.7-.512-3.148-1.288-4.163-1.928-.51-.32-.918-.612-1.2-.825-.142-.107-.253-.194-.33-.257-.038-.03-.07-.056-.09-.074l-.026-.022-.008-.007-.003-.002z" fill="#10122E"/><path d="M216.127 197.29c3.767-3.403 6.014-10.874 6.925-16.888-.243.85 6.44 1.033 10.266-3.037 2.673-2.734 1.094-4.92-.425-8.383-4.252-8.747-11.36-15.61-18.223-22.05-1.762-1.7-3.584-6.014-6.682-4.92-2.43.85-2.248 7.896-1.762 10.083 2.49 18.406 9.9 45.194 9.9 45.194zM308.465 195.345c-3.584-3.402-7.35-10.51-8.018-16.28 0 .85-6.44.85-10.023-3.22-2.43-2.733-.91-4.677.91-7.714 4.68-7.896 12.03-14.153 19.136-20.106 2.004-1.457 4.01-3.644 6.925-2.37 2.43 1.034 1.76 5.772 1.336 7.716-3.583 20.592-10.265 41.975-10.265 41.975z" fill="#fff"/><path d="M308.882 167.52c-4.92 1.276-10.266 4.01-12.574 8.626-1.033-5.407 4.07-11.48 8.383-14.397 1.337-.85 0-3.038-1.336-2.127-5.345 3.827-10.934 11.116-9.355 17.738.242.73.91.912 1.457.85l-.182.73c-.243 1.458 2.248 2.126 2.43.668 1.093-5.345 6.682-8.383 11.784-9.598 1.64-.607.97-2.915-.608-2.49zM219.65 161.756c-1.335-.85-2.43 1.033-1.335 2.126 3.523 2.49 7.836 7.593 8.383 12.27-2.31-4.616-7.533-7.35-12.574-8.625-1.58-.426-2.248 1.944-.67 2.37 5.104 1.335 10.692 4.312 11.786 9.596.243.912 1.336 1.033 1.944.67.607.363 1.58.242 1.822-.67 1.762-6.62-4.01-14.153-9.355-17.737z" fill="#ED662B"/><path d="M231.925 165.332c-3.767-6.44-9.112-11.785-14.458-16.887l-5.77-6.44c-1.094-1.032-3.34-1.457-4.678-.242-2.916 2.55-2.248 8.14-1.762 11.54.91 6.623 2.247 13.062 3.766 19.5 1.76 8.383 3.766 16.462 6.014 24.602 0 .425.425.668.668.668.243.243.668 0 1.093-.243 4.25-4.07 6.013-10.266 6.924-16.036 2.673.425 7.107-1.458 8.2-2.126 6.44-3.645 2.856-9.598 0-14.336zm-1.58 13.303c-1.093.668-2.43 1.033-3.766 1.336-.426 0-2.43 0-2.43.244-.244-.85-1.762-1.032-2.005 0-.91 5.103-2.248 10.874-5.528 14.944-3.766-13.91-7.107-28.247-9.355-42.4-.425-2.37-.668-12.817 3.766-8.383l4.253 4.92c2.005 1.944 4.01 4.07 6.014 6.014 4.252 4.312 7.776 9.17 10.448 14.517.67 1.336 1.337 2.37 1.58 3.645 1.032 2.187-1.215 4.07-2.977 5.163zM314.966 144.194c-2.005.243-3.766 1.7-5.103 3.038-2.672 2.37-5.345 4.495-8.018 6.803-4.92 4.495-8.93 9.415-12.27 14.943-2.673 4.495-.426 8.14 4.252 10.266.91.425 4.01 1.458 6.013 1.336 1.094 5.77 4.01 11.36 8.02 15.43.424.243.667.243 1.092.243.243 0 .425-.243.668-.67 2.43-7.713 4.435-15.61 6.44-23.568 1.58-6.44 3.097-13.242 4.008-19.924.243-3.644-.06-8.14-5.102-7.896zm2.855 7.472c-.91 9.598-3.765 19.5-6.256 28.914-1.093 4.313-2.247 8.565-3.584 12.635-3.584-4.07-5.77-9.172-6.682-14.518-.243-1.032-1.76-.85-2.004 0 .243-.668.425-.425-.425-.243-.913 0-1.763-.243-2.674-.425-2.43-.67-6.014-2.37-6.257-5.103-.244-1.944 2.004-4.496 3.097-6.196 1.58-2.368 3.34-4.494 5.103-6.62 3.34-3.645 6.925-6.622 10.69-9.84 1.58-1.338 3.1-2.735 5.103-3.828 4.13-2.248 4.13 3.098 3.888 5.224z" fill="#131841"/><path d="M263.327 271.752c-2.308 2.552-2.247 10.023.304 11.36 5.833 3.098 8.748-2.612 7.533-4.253-1.7-2.248-1.76-6.5-2.126-9.295-.486-3.766 2.612-5.102 2.066-5.65-.547-.546-4.01-.667-5.164 2.067-1.215 2.733-1.762 5.04-1.762 5.04s-.425.184-.85.73zM317.33 270.593c2.307 2.552 2.246 10.023-.305 11.36-5.832 3.098-8.747-2.612-7.532-4.252 1.7-2.247 1.76-6.5 2.126-9.293.485-3.767-2.613-5.103-2.067-5.65.547-.546 4.01-.668 5.164 2.066 1.215 2.733 1.76 5.04 1.76 5.04s.366.184.852.73z" fill="#EFA75B"/><path d="M292.125 254.863s2.673 1.883.425 2.855c-6.317 2.734-9.537 6.075-9.598 8.262-.12 2.186 1.458 5.527 3.95 5.224 2.125-.243 2.55-1.762 4.13-3.827 3.34-4.13 8.382-5.164 11.116-4.252 7.046 2.247 8.504 13.91 1.032 19.56-6.925 5.163-5.77 3.765-11.663 7.106-4.495 2.553-3.28 4.74-1.822 6.38 1.64 1.822 5.832 2.43 10.752.91 2.49-.79 4.434-1.336 5.83-2.307 1.156-.79 7.352.728 7.898 2.004l8.505 11.724c-3.767 4.314 22.9-10.508 18.77-13.302-3.038-2.066-1.762-.425-5.285-14.336-3.463-13.485-11.36-27.214-16.644-30.19-3.22-1.822-6.803-6.378-8.868-6.196-3.462.304-4.86 3.16-4.556 4.677 0 0-6.196-1.822-9.294-2.37-2.612-.424-4.86 2.31-5.345 4.922-.122.607-.122 1.214.06 1.64.79 1.7 1.155 3.584 6.804 5.163 0 0 5.468.91 5.772.91" fill="#EB532A"/><path fill-rule="evenodd" clip-rule="evenodd" d="M316.198 246.743c1.327 1.162 2.62 2.294 3.848 2.99 1.498.844 3.085 2.385 4.654 4.34 1.584 1.975 3.207 4.444 4.763 7.227 3.11 5.565 5.985 12.455 7.74 19.294l.002.004c.884 3.488 1.467 6.002 1.89 7.84l.035.15c.408 1.77.655 2.838.883 3.56.224.708.39.943.573 1.123.192.188.416.337.83.612.175.115.382.252.633.423.485.33.818.813.893 1.417.07.55-.094 1.072-.306 1.503-.418.85-1.23 1.754-2.18 2.63-1.937 1.784-4.833 3.806-7.693 5.577-2.865 1.773-5.765 3.337-7.735 4.192-.496.215-.95.392-1.338.517-.358.116-.766.223-1.13.22-.166 0-.506-.022-.82-.246-.412-.294-.542-.748-.505-1.126.017-.175.068-.33.125-.46l-8.135-11.215-.023-.053c-.018-.017-.053-.05-.115-.094-.147-.106-.37-.233-.67-.37-.6-.275-1.394-.54-2.232-.75-.836-.208-1.67-.35-2.344-.397-.338-.024-.607-.02-.802.002-.115.013-.174.03-.194.034-1.39.953-3.23 1.53-5.29 2.174l-.79.25-.008.002c-2.575.794-5 1.046-7.033.84-2.003-.204-3.767-.87-4.838-2.06l-.006-.006c-.734-.825-1.7-2.084-1.59-3.64.115-1.623 1.342-3.062 3.686-4.392 1.983-1.124 3.17-1.717 4.114-2.188 1.92-.96 2.84-1.418 7.434-4.844 3.407-2.577 4.786-6.53 4.5-10.107-.287-3.607-2.227-6.61-5.213-7.563l-.006-.002-.008-.002c-1.094-.365-2.794-.37-4.654.237-1.834.6-3.746 1.774-5.274 3.66-.346.453-.634.88-.914 1.293l-.053.078c-.29.43-.59.87-.92 1.257-.713.836-1.585 1.443-2.964 1.602-1.826.22-3.185-.922-3.987-2.164-.803-1.244-1.236-2.842-1.166-4.176.05-1.545 1.152-3.18 2.806-4.68 1.71-1.548 4.204-3.125 7.44-4.525.057-.025.103-.048.14-.068-.29-.296-.527-.597-.726-.894l-.02-.015-.012-.01s0 .002.01-.01c-.372-.56-.608-1.103-.805-1.555-.06-.135-.114-.262-.17-.38l-.005-.014-.007-.014c-.306-.716-.265-1.576-.127-2.27.282-1.51 1.064-3.04 2.17-4.154 1.107-1.117 2.652-1.912 4.408-1.626h.008l.007.003c1.602.282 3.97.887 5.903 1.41.84.227 1.605.44 2.206.612.17-.71.52-1.426 1.017-2.054.925-1.17 2.41-2.11 4.442-2.288m-4.46 5.752l-.305 1.034-.068-.02-.2-.058-.74-.213c-.627-.178-1.493-.422-2.456-.682-1.935-.524-4.21-1.103-5.706-1.367-.855-.137-1.737.223-2.525 1.017-.792.8-1.376 1.937-1.58 3.037l-.002.007v.006c-.102.51-.065.856-.01.995.08.17.15.332.217.485.15.338.283.638.447.923l.055.05c.247.22.59.56.858.968.032.05.065.103.098.16.763.62 2.046 1.302 4.375 1.958l.178.03.623.103c.517.085 1.21.2 1.91.312.702.113 1.41.226 1.96.31.277.044.51.078.68.102.157.022.214.027.213.03h-.026v2.156c-.13 0-.338-.03-.474-.048l-.01-.002c-.186-.026-.43-.062-.71-.105-.56-.086-1.275-.2-1.978-.315l-1.916-.313-.625-.104-.236-.038.176-1.064-.177 1.064-.058-.01-.056-.015c-1.714-.48-3.008-1-4.002-1.562-.276.31-.644.548-1.05.723m13.117-9.554l-.303 1.034 1.712.504-.35-1.75c-.077-.377.054-1.156.653-1.914.564-.714 1.51-1.352 2.938-1.478.14-.012.49.062 1.133.47.604.385 1.294.948 2.07 1.62.25.213.507.44.772.672 1.324 1.162 2.827 2.482 4.27 3.3h.002c1.144.644 2.525 1.935 4.03 3.812 1.492 1.858 3.05 4.222 4.563 6.928 3.025 5.415 5.83 12.13 7.535 18.777.878 3.465 1.457 5.96 1.88 7.793l.057.25c.386 1.674.65 2.818.904 3.624.278.88.583 1.49 1.124 2.018.35.34.81.646 1.307.974.132.086.266.174.4.266-.012.047-.037.118-.085.217-.235.477-.798 1.157-1.708 1.996-1.785 1.645-4.546 3.583-7.365 5.328-2.816 1.742-5.62 3.25-7.46 4.048-.218.095-.42.178-.603.25l-8.47-11.68c-.194-.358-.497-.62-.743-.797-.302-.22-.662-.414-1.037-.585-.753-.345-1.68-.65-2.606-.88-.924-.232-1.888-.4-2.72-.457-.413-.03-.822-.03-1.19.01-.336.038-.77.126-1.135.375l-.007.005c-1.104.767-2.616 1.244-4.792 1.928l-.746.236c-2.343.723-4.474.926-6.175.754-1.73-.176-2.88-.724-3.45-1.355-.723-.812-1.092-1.466-1.05-2.05.036-.52.45-1.45 2.6-2.67 1.85-1.05 3.006-1.628 3.953-2.102 2.003-1.002 3.074-1.54 7.822-5.08l.006-.003c4.063-3.072 5.69-7.775 5.352-12.002-.334-4.196-2.645-8.146-6.7-9.443-1.64-.544-3.824-.477-6 .235-2.203.72-4.48 2.125-6.29 4.364l-.01.01-.008.012c-.39.51-.713.988-.992 1.4l-.057.086c-.3.444-.535.785-.774 1.066-.426.5-.828.773-1.572.86h-.01c-.662.08-1.336-.295-1.916-1.193-.576-.89-.87-2.05-.824-2.9v-.015l.002-.015c.017-.638.554-1.76 2.098-3.156 1.493-1.352 3.77-2.813 6.85-4.146m23.224-11.965c-.28-.246-.562-.492-.845-.737l.845.737zm-.845-.737c-.78-.673-1.574-1.33-2.323-1.805l2.323 1.806zm-2.323-1.805c-.71-.45-1.584-.877-2.478-.798l2.478.8zm-21.534 11.543z" fill="#10122E"/><path d="M314.66 252.73c-.304-1.46-4.86-5.53-6.682-3.22-2.49 3.28 8.504 11.784 6.68 3.22zM301.78 254.798c-.06-1.275-4.738-2.612-7.532-1.518-2.733 1.215 7.836 6.44 7.532 1.518z" fill="#F89942"/><path fill-rule="evenodd" clip-rule="evenodd" d="M305.41 249.83c-.422-1.692-.14-3.304 1.254-4.2l1.166 1.814c-.305.196-.632.647-.327 1.87l.002.005v.004c.802 3.365 3.792 5.72 6.325 7.075l-1.017 1.9c-2.69-1.438-6.38-4.184-7.404-8.47z" fill="#10122E"/><path d="M277.362 257.352c6.743 1.215 10.873 4.13 11.48 6.257.608 2.125-1.64 3.887-3.887 4.98-2.247 1.093-3.28.668-5.953-.668-2.673-1.337-4.556-.79-6.62.243-4.435 2.187-4.74 10.51 0 15.854 4.737 5.345 8.442 3.28 13.363 4.92 4.373 1.457 3.462 6.013 3.22 6.742-.85 2.31-3.706 3.402-8.87 2.977-2.61-.184-4.738-1.216-6.378-1.398-5.102-.608-12.21 7.47-12.21 7.47-.607 4.314-8.443 31.467-8.018 32.257.425.788-26.303-15.43-26.303-15.43s12.574-14.64 14.336-30.98c1.458-13.79 1.215-25.15 9.172-32.742 2.673-2.55 5.406-7.107 7.35-7.714 1.762-.547 3.766-.122 5.163 1.093 3.28-1.822 6.5-2.49 8.93-2.733 2.673-.304 5.285 1.093 6.317 3.584.243.546.365 1.154.304 1.58-.365 1.82.364 3.704-6.38 7.228" fill="#EB532A"/><path fill-rule="evenodd" clip-rule="evenodd" d="M277.452 252.484c-.832-2.008-2.962-3.18-5.2-2.926h-.006l-.008.002c-2.33.233-5.397.872-8.513 2.603l-.66.367-.57-.496c-1.118-.97-2.733-1.312-4.136-.877-.234.073-.617.32-1.165.848-.524.507-1.1 1.173-1.725 1.935-.253.307-.514.63-.782.963-1.024 1.27-2.146 2.66-3.255 3.72-3.76 3.587-5.62 8.087-6.71 13.48-.775 3.82-1.15 7.993-1.56 12.554-.174 1.942-.354 3.954-.575 6.04v.002c-.904 8.387-4.572 16.285-7.972 22.048-1.705 2.89-3.353 5.263-4.577 6.914-.49.66-.91 1.203-1.24 1.62l.086.054c.73.44 1.772 1.072 3.02 1.825 2.5 1.51 5.825 3.51 9.137 5.488 3.314 1.977 6.61 3.927 9.048 5.332 1.014.584 1.872 1.07 2.52 1.424l.015-.07c.18-.848.457-2.006.8-3.37.686-2.735 1.647-6.346 2.637-10.057l.233-.872c.917-3.435 1.844-6.907 2.592-9.82.82-3.188 1.404-5.625 1.546-6.63l.045-.318.213-.243.81.713-.81-.713h.002l.002-.002.004-.006.018-.02c.015-.017.037-.04.065-.073l.246-.267c.212-.227.518-.55.9-.934.766-.766 1.843-1.786 3.09-2.79 1.242-1 2.68-2.005 4.163-2.726 1.466-.712 3.086-1.198 4.654-1.012.785.087 1.662.344 2.51.59.164.05.327.097.487.143 1.048.3 2.144.576 3.334.66H280.177c2.51.207 4.345.032 5.61-.407 1.22-.423 1.858-1.07 2.152-1.85.08-.26.32-1.366.082-2.527-.225-1.102-.865-2.25-2.625-2.837-1.126-.375-2.194-.543-3.273-.66-.318-.034-.648-.065-.984-.096-.764-.07-1.563-.146-2.33-.274-2.356-.394-4.696-1.325-7.243-4.198-2.555-2.883-3.752-6.563-3.71-9.84.04-3.237 1.314-6.35 4.037-7.696 1.07-.535 2.2-1 3.463-1.117 1.29-.12 2.63.13 4.12.876 1.376.688 2.145 1.04 2.82 1.145.584.09 1.176.007 2.18-.48 1.066-.52 2.052-1.162 2.688-1.86.625-.688.797-1.286.634-1.856-.086-.3-.33-.73-.837-1.247-.497-.51-1.2-1.054-2.113-1.59-1.71-1.005-4.092-1.94-7.07-2.54-1.016 1.002-2.56 2.075-4.907 3.302l-.998-1.912c3.32-1.735 4.612-2.976 5.163-3.864.39-.63.44-1.053.51-1.646.03-.266.067-.567.14-.936.014-.164-.036-.545-.225-.97l-.005-.012-.006-.012zm1.723 4.146c2.743.64 5.024 1.558 6.767 2.583 1.04.61 1.904 1.268 2.563 1.942.65.665 1.15 1.397 1.368 2.16.444 1.556-.204 2.903-1.113 3.9-.898.988-2.16 1.774-3.34 2.348-1.244.605-2.293.855-3.456.673-1.07-.168-2.154-.698-3.45-1.346-1.182-.59-2.12-.736-2.957-.658-.863.08-1.706.404-2.7.9l-.006.003c-1.708.843-2.802 2.983-2.837 5.79-.035 2.766.985 5.92 3.168 8.382 2.192 2.473 4.073 3.182 5.986 3.502.69.114 1.355.176 2.076.243.355.032.723.066 1.114.11 1.148.123 2.388.312 3.723.757 2.612.87 3.704 2.73 4.055 4.452.336 1.642.01 3.16-.155 3.655l-.005.016-.006.015c-.56 1.52-1.775 2.57-3.476 3.16-1.665.578-3.837.737-6.488.52-1.42-.1-2.69-.43-3.767-.738-.195-.055-.38-.11-.556-.16-.852-.247-1.51-.44-2.093-.503h-.007c-.982-.118-2.163.178-3.462.81-1.283.623-2.58 1.522-3.752 2.466-1.168.94-2.186 1.903-2.914 2.632-.363.364-.65.668-.848.88l-.09.098c-.22 1.272-.804 3.666-1.54 6.53-.75 2.922-1.68 6.403-2.596 9.835l-.234.876c-.99 3.715-1.948 7.31-2.63 10.024-.34 1.36-.61 2.485-.78 3.29-.087.407-.143.713-.172.92l-.015.118c.01.056.015.117.016.183.003.34-.16.703-.496.92-.255.166-.502.177-.588.178-.11.002-.198-.013-.247-.023-.167-.033-.327-.102-.41-.138-.214-.094-.51-.244-.858-.43-.707-.376-1.73-.953-2.953-1.658-2.454-1.415-5.76-3.372-9.076-5.35-3.316-1.98-6.646-3.983-9.146-5.492-1.25-.754-2.292-1.385-3.023-1.827l-.85-.513-.298-.182.558-.922-.56.922-1.087-.66.83-.965.005-.007.025-.03.1-.118c.088-.107.22-.267.39-.48.34-.42.83-1.045 1.423-1.847 1.19-1.604 2.793-3.913 4.453-6.725 3.326-5.642 6.826-13.233 7.684-21.185.21-1.994.387-3.955.56-5.87.414-4.62.805-8.98 1.604-12.923 1.14-5.633 3.14-10.61 7.336-14.614.996-.95 1.998-2.19 3.01-3.445.283-.35.566-.7.85-1.044.633-.77 1.274-1.517 1.892-2.115.595-.575 1.282-1.126 2.02-1.357h.003c1.876-.583 3.966-.25 5.585.844 3.22-1.66 6.338-2.29 8.712-2.527 3.1-.35 6.187 1.268 7.422 4.23.286.65.48 1.464.38 2.158l-.004.03-.006.03c-.026.127-.045.29-.067.48-.068.582-.166 1.414-.568 2.287z" fill="#10122E"/><path d="M254.64 261.43c-.366-1.034 2.915-6.197 6.073-6.44 4.435-.304-3.827 12.756-6.074 6.44zM268.49 256.687c-.184-2.065 5.466-4.495 8.017-3.037 2.55 1.458-7.532 8.504-8.018 3.037zM279.002 262.882c1.397-.303 5.953.912 5.71 4.07-.243 3.16-12.574-2.55-5.71-4.07z" fill="#F89942"/><path d="M259.92 264.768l3.525-3.766c1.822-1.944 2.55-4.8 1.58-7.35-.366-1.033-.973-1.884-1.763-2.187" fill="#EB532A"/><path fill-rule="evenodd" clip-rule="evenodd" d="M266.047 253.28c-.407-1.146-1.166-2.353-2.387-2.823l-.775 2.013c.354.136.81.623 1.132 1.54l.005.012.004.012c.81 2.123.215 4.55-1.358 6.23l-3.524 3.766 1.575 1.473 3.52-3.765h.002c2.068-2.207 2.932-5.483 1.805-8.46z" fill="#10122E"/><path d="M266.304 346.53l-102.72-60.017V103.368l102.72-10.57 102.72 10.57v183.206l-102.72 59.955zm-93.487-65.12l93.547 54.67 93.547-54.67V111.448l-93.546-9.658-93.547 9.657V281.41z" fill="#141841"/><path d="M265.145 290.344c6.44 1.397 7.715-4.86 6.135-6.075-2.247-1.7-2.55-3.524-3.644-6.136-1.458-3.462.242-7.836-.426-8.2-.668-.365-2.612 1.032-4.434 3.34-4.8 6.014-.425 16.462 2.37 17.07zM315.62 272.903c2.49 2.37 3.098 9.78.668 11.298-5.588 3.585-8.93-1.82-7.836-3.582 1.458-2.37 1.215-6.622 1.336-9.416.183-3.766-3.037-4.86-2.55-5.406.485-.608 3.887-1.033 5.345 1.58 1.397 2.61 2.186 4.86 2.186 4.86s.303.18.85.667z" fill="#EFA75B"/><path d="M333.298 231.36s24.36-8.504 19.925-16.947c-4.435-8.505-10.327-3.34-13.303 0 0 0-3.706-8.87-8.14-7.776-4.374 1.094-3.645 8.808 1.518 24.723z" fill="#EB532A"/><path fill-rule="evenodd" clip-rule="evenodd" d="M340.22 212.522c1.455-1.455 3.39-3.02 5.528-3.594 1.422-.383 2.958-.334 4.46.476 1.475.796 2.806 2.267 3.974 4.508 1.4 2.666.422 5.258-1.37 7.4-1.785 2.134-4.547 4.064-7.347 5.674-2.82 1.62-5.772 2.968-8.01 3.906-1.12.47-2.065.84-2.733 1.093-.333.127-.598.224-.78.29l-.21.075-.054.02-.02.007-.356-1.018.356 1.017-1.04.363-.34-1.048c-2.585-7.963-4.096-13.98-4.387-18.178-.144-2.094.004-3.854.563-5.205.587-1.417 1.618-2.358 3.07-2.72h.002c1.513-.374 2.894.13 4.018.915 1.116.778 2.08 1.896 2.852 2.983.772 1.084 1.395 2.195 1.825 3.034zm-6.236 17.436c.646-.245 1.56-.602 2.638-1.054 2.19-.92 5.053-2.227 7.768-3.788 2.735-1.572 5.23-3.35 6.767-5.187 1.527-1.826 1.93-3.463 1.115-5.018l-.002-.002c-1.048-2.01-2.117-3.085-3.086-3.608-.943-.508-1.898-.555-2.876-.292-2.062.555-4.094 2.45-5.58 4.118l-1.14 1.28-.66-1.58v-.004l-.007-.015c-.005-.015-.015-.038-.028-.067l-.117-.262c-.104-.228-.26-.555-.46-.947-.402-.785-.977-1.81-1.677-2.794-.707-.995-1.502-1.89-2.33-2.466-.816-.57-1.56-.765-2.265-.592-.735.184-1.25.617-1.597 1.452-.373.9-.54 2.27-.404 4.23.26 3.735 1.578 9.188 3.942 16.594z" fill="#10122E"/><path d="M270.433 144.55s2.49-5.284 7.897-9.597c5.467-4.313 10.934-12.27 7.228-17.738-3.705-5.527-12.817.486-15.247 4.8 0 0-5.405-9.66-9.17-8.02-3.767 1.64-5.043 14.7 9.293 30.555z" fill="#EB532A"/><path fill-rule="evenodd" clip-rule="evenodd" d="M270.367 120.03c1.58-1.97 4.07-3.946 6.65-5.09 1.622-.722 3.38-1.16 5.046-.986 1.712.177 3.272.996 4.388 2.658 2.167 3.2 1.562 7.015-.1 10.382-1.674 3.385-4.523 6.57-7.352 8.803-2.6 2.075-4.506 4.39-5.762 6.19-.627.897-1.09 1.663-1.393 2.2-.15.27-.263.48-.336.62l-.08.16-.017.036-.004.007-.69 1.464-1.085-1.2c-7.272-8.045-10.65-15.45-11.695-21.137-.522-2.838-.468-5.28.003-7.166.46-1.838 1.377-3.357 2.768-3.963 1.44-.627 2.89-.103 4.04.646 1.173.763 2.284 1.914 3.22 3.05.95 1.15 1.768 2.343 2.347 3.244l.054.084zm-.146 22.655c.316-.533.73-1.193 1.248-1.934 1.34-1.92 3.382-4.403 6.187-6.64l.005-.004c2.637-2.08 5.254-5.03 6.755-8.067 1.51-3.057 1.786-5.952.25-8.22l-.004-.005c-.737-1.1-1.705-1.6-2.818-1.716-1.16-.12-2.527.178-3.95.81-2.868 1.273-5.56 3.71-6.643 5.633l-.944 1.673-.937-1.675-.004-.004-.01-.018-.043-.074c-.038-.066-.095-.165-.17-.29-.15-.253-.37-.613-.644-1.04-.553-.86-1.32-1.977-2.196-3.038-.885-1.073-1.832-2.03-2.733-2.616-.922-.6-1.558-.67-2.002-.476-.492.214-1.146.943-1.537 2.51-.38 1.518-.454 3.64.026 6.253.912 4.962 3.81 11.583 10.165 18.938zM265.768 235.31c-.255-.304-.65-.45-1.042-.387-.393.064-.722.33-.866.702-.175.45-.79 1.118-1.976 1.774-1.14.628-2.65 1.155-4.33 1.426-3.38.543-7.242.02-10.134-2.488-.468-.407-1.178-.357-1.585.112-.407.47-.357 1.178.112 1.585 3.548 3.08 8.16 3.62 11.963 3.01 1.91-.307 3.67-.91 5.06-1.68.805-.443 1.55-.978 2.118-1.59.12.103.254.213.396.326.913.723 2.262 1.597 4.013 2.206 3.558 1.236 8.602 1.313 14.744-2.793.517-.345.656-1.042.31-1.558-.344-.516-1.042-.655-1.558-.31-5.58 3.73-9.893 3.533-12.758 2.538-1.46-.508-2.59-1.24-3.355-1.844-.382-.303-.668-.57-.855-.757-.094-.094-.162-.167-.205-.214l-.044-.05-.008-.01m0 0" fill="#10122E"/><path d="M338.22 159.192s25.755-1.7 23.69-11.056c-2.005-9.354-9.05-5.953-12.818-3.523 0 0-1.214-9.537-5.77-9.598-4.495-.182-5.893 7.533-5.103 24.177z" fill="#EB532A"/><path fill-rule="evenodd" clip-rule="evenodd" d="M343.355 133.936c1.552.026 2.748.866 3.622 1.91.87 1.04 1.5 2.37 1.956 3.62.455 1.247.76 2.482.952 3.405 1.792-1.015 4.074-2.008 6.288-1.995 1.47.01 2.937.463 4.168 1.642 1.21 1.157 2.1 2.924 2.628 5.388.65 2.95-.973 5.195-3.27 6.79-2.283 1.585-5.458 2.713-8.585 3.52-3.15.812-6.353 1.324-8.76 1.633-1.206.155-2.217.26-2.927.325-.356.032-.637.056-.83.07l-.22.018-.06.005h-.02l-.072-1.075.07 1.076-1.096.073-.052-1.1c-.395-8.33-.25-14.535.59-18.663.42-2.06 1.035-3.718 1.937-4.868.943-1.205 2.19-1.83 3.682-1.774zm-4.105 24.087c.69-.064 1.665-.165 2.828-.314 2.358-.304 5.465-.802 8.496-1.584 3.053-.788 5.93-1.84 7.895-3.203 1.95-1.355 2.772-2.83 2.39-4.556v-.006c-.474-2.21-1.217-3.526-2.01-4.285-.772-.74-1.68-1.037-2.69-1.043-2.135-.013-4.6 1.273-6.48 2.486l-1.437.927-.216-1.697v-.003l-.002-.017-.01-.07-.044-.285c-.04-.247-.1-.604-.19-1.034-.18-.865-.46-2.004-.873-3.135-.417-1.142-.944-2.208-1.585-2.974-.632-.756-1.292-1.128-2.01-1.138h-.03c-.748-.03-1.357.24-1.912.947-.6.764-1.127 2.04-1.52 3.967-.748 3.67-.928 9.28-.6 17.016z" fill="#10122E"/><path d="M184.3 223.464s-.79-26-12.88-26.424c-6.134-.243-8.078 7.593-6.316 11.906 0 0-9.05.486-9.963 4.19-.91 3.706 1.156 14.823 29.16 10.328z" fill="#EB532A"/><path fill-rule="evenodd" clip-rule="evenodd" d="M164.303 200.866c1.15-2.748 3.51-5.05 7.155-4.906 3.466.123 6.057 2.094 7.95 4.76 1.884 2.652 3.157 6.086 4.026 9.417.872 3.345 1.356 6.665 1.622 9.14.133 1.24.213 2.273.26 2.998.022.363.036.65.045.845.006.098.01.174.01.226l.003.06v.022l-1.077.034 1.078-.033.03.946-.937.15c-14.088 2.262-21.953.655-26.203-2.264-4.327-2.972-4.72-7.164-4.173-9.385.33-1.338 1.36-2.262 2.448-2.893 1.103-.64 2.432-1.078 3.666-1.38 1.244-.308 2.45-.49 3.34-.597l.13-.016c-.514-2.235-.304-4.894.63-7.124zm.856 9.154h-.02l-.07.006c-.06.004-.153.01-.27.02-.24.02-.583.052-1 .102-.835.1-1.95.27-3.08.55-1.144.28-2.25.658-3.1 1.152-.865.502-1.308 1.028-1.434 1.542-.365 1.485-.18 4.704 3.3 7.093 3.472 2.385 10.394 4.066 23.685 2.06l-.008-.133c-.044-.7-.12-1.7-.25-2.904-.26-2.413-.73-5.62-1.565-8.827-.84-3.22-2.03-6.366-3.696-8.71-1.652-2.326-3.692-3.764-6.27-3.855h-.005c-2.487-.098-4.167 1.396-5.082 3.583-.934 2.232-.956 4.972-.194 6.838l.572 1.403-1.513.08z" fill="#10122E"/><path d="M189.158 142.183s9.476-21.442-.182-26.545c-4.92-2.612-9.537 3.037-9.78 7.23 0 0-7.533-3.16-9.78-.487-2.248 2.673-4.86 12.514 19.742 19.803z" fill="#EB532A"/><path fill-rule="evenodd" clip-rule="evenodd" d="M181.612 115.897c2.028-1.814 4.894-2.79 7.867-1.212 2.805 1.483 4.156 4.138 4.66 7.07.502 2.914.198 6.22-.393 9.274-.595 3.068-1.495 5.962-2.243 8.082-.375 1.062-.713 1.934-.958 2.543-.123.305-.223.543-.292.707l-.08.188-.022.05-.006.014-.002.005-.987-.437.986.436-.383.867-.91-.27c-12.383-3.67-18.214-8.057-20.566-12.127-2.4-4.152-1.068-7.77.306-9.403.83-.988 2.066-1.343 3.217-1.433 1.168-.09 2.434.074 3.563.312 1.137.24 2.192.565 2.96.828.474-2.005 1.673-4.057 3.282-5.497zm-2.834 7.964h-.002l-.013-.005-.057-.023-.227-.09c-.2-.077-.49-.185-.847-.307-.715-.246-1.682-.543-2.707-.758-1.036-.218-2.074-.34-2.95-.273-.894.07-1.442.322-1.736.67-.874 1.04-1.97 3.68-.09 6.937 1.882 3.257 6.832 7.305 18.387 10.86l.008-.02c.235-.585.562-1.428.925-2.456.727-2.06 1.592-4.845 2.16-7.775.57-2.945.823-5.956.385-8.5-.434-2.52-1.52-4.46-3.544-5.53-1.948-1.033-3.85-.49-5.42.915-1.608 1.438-2.675 3.64-2.78 5.424l-.087 1.52-1.405-.59z" fill="#10122E"/></svg>